<?xml version="1.0" standalone="no"?>
<!DOCTYPE svg PUBLIC "-//W3C//DTD SVG 20010904//EN"
 "http://www.w3.org/TR/2001/REC-SVG-20010904/DTD/svg10.dtd">
<svg version="1.0" xmlns="http://www.w3.org/2000/svg"
 width="1024.000000pt" height="1024.000000pt" viewBox="0 0 1024.000000 1024.000000"
 preserveAspectRatio="xMidYMid meet">

<g transform="translate(0.000000,1024.000000) scale(0.100000,-0.100000)"
fill="#000000" stroke="none">
<path d="M5014 9020 c-212 -108 -485 -371 -662 -636 -157 -234 -306 -581 -397
-924 -49 -185 -115 -558 -127 -720 l-3 -34 -55 3 c-30 1 -59 8 -63 14 -12 17
0 445 18 677 45 565 112 1121 172 1433 28 148 26 169 -16 175 -30 5 -142 -105
-220 -215 -72 -101 -177 -305 -219 -424 -159 -452 -202 -1003 -121 -1553 10
-71 18 -131 16 -132 -7 -5 -108 -10 -111 -5 -12 18 -68 327 -86 466 -46 366
-81 874 -79 1152 0 100 -2 187 -6 193 -35 57 -142 -96 -218 -316 -134 -384
-135 -863 -2 -1401 18 -76 36 -145 40 -153 4 -12 -11 -21 -67 -39 -135 -43
-352 -132 -468 -193 -332 -173 -581 -383 -915 -773 -180 -210 -268 -297 -450
-442 -126 -102 -166 -156 -173 -236 -5 -65 15 -94 97 -140 l56 -32 -75 -6
c-86 -7 -116 -17 -147 -50 -172 -186 179 -570 937 -1023 181 -109 549 -294
738 -371 78 -32 142 -62 142 -67 0 -5 -13 -40 -30 -79 -74 -175 -104 -332
-104 -549 0 -309 71 -554 228 -789 74 -111 221 -273 266 -291 25 -11 34 -10
56 5 22 14 25 22 21 48 -23 123 -27 161 -27 234 0 100 13 167 44 217 l23 38
47 -77 c164 -270 419 -510 668 -628 220 -105 560 -188 881 -217 142 -13 213
-6 228 22 11 21 10 23 -60 112 -112 141 -149 315 -130 611 17 252 -2 402 -69
546 -73 158 -243 328 -462 463 l-70 44 332 5 c210 3 383 11 467 21 126 15 408
57 477 72 30 6 33 3 109 -108 242 -353 431 -545 640 -648 421 -209 910 -110
1303 265 133 127 217 240 297 400 96 193 118 277 118 450 1 120 -2 149 -21
199 -72 194 -232 310 -492 357 l-74 13 59 18 c208 62 434 46 624 -42 134 -63
228 -133 798 -591 529 -426 626 -494 706 -494 74 0 89 23 115 181 66 386 68
771 8 1274 -41 336 -40 386 4 830 37 378 37 898 -1 1150 -12 84 -42 115 -102
106 -60 -10 -84 -26 -280 -184 -692 -557 -1058 -844 -1176 -923 -128 -85 -227
-119 -366 -126 l-100 -4 70 37 c91 49 222 178 258 254 82 170 77 378 -13 576
-65 143 -202 312 -326 400 -75 53 -189 108 -269 129 -180 46 -405 -6 -606
-142 -83 -56 -279 -209 -409 -318 l-85 -72 -43 26 c-23 14 -41 29 -40 32 5 12
248 230 373 335 177 149 501 388 740 546 166 110 210 144 210 161 0 20 -6 22
-69 25 -79 3 -217 -28 -363 -82 -331 -124 -692 -371 -1043 -713 l-125 -122
-43 25 c-24 14 -42 30 -40 35 7 21 359 378 519 525 331 305 713 634 962 828
75 59 137 114 137 121 0 49 -96 39 -307 -30 -311 -102 -616 -290 -956 -588
-218 -191 -536 -525 -646 -679 -19 -27 -38 -48 -42 -48 -15 0 -99 44 -99 51 0
17 283 366 474 584 183 209 1018 1097 1175 1250 52 50 61 71 39 93 -19 19 -51
15 -166 -23 -212 -68 -487 -227 -757 -437 -152 -118 -497 -460 -643 -638 -216
-263 -487 -637 -507 -700 -7 -22 -19 -23 -87 -7 l-48 12 98 170 c183 319 362
596 751 1160 249 362 413 596 521 741 117 158 123 167 108 182 -23 23 -75 11
-193 -46 -253 -123 -443 -260 -656 -472 -80 -80 -184 -192 -230 -250 -290
-357 -581 -852 -752 -1280 -30 -74 -56 -134 -58 -134 -2 1 -30 5 -62 9 -47 6
-57 10 -53 24 3 9 10 36 16 61 106 419 458 1288 817 2018 57 117 103 221 101
230 -6 30 -42 24 -124 -18z m-384 -590 c33 -22 60 -43 60 -45 0 -3 -18 -44
-41 -92 -127 -272 -205 -463 -246 -596 -12 -43 -17 -47 -36 -41 -12 4 -67 20
-122 34 -88 24 -100 30 -98 48 4 36 128 297 218 459 103 186 172 286 191 279
8 -3 41 -24 74 -46z m962 -103 l57 -52 -100 -135 c-86 -115 -316 -450 -346
-505 -9 -15 -16 -13 -74 23 -35 22 -85 51 -111 64 l-47 25 57 75 c98 131 225
278 362 421 72 75 135 137 138 137 4 -1 33 -24 64 -53z m-1959 17 c64 -20 63
-17 42 -117 -26 -125 -54 -330 -66 -487 l-12 -155 -101 3 c-55 2 -102 5 -102
5 -4 5 48 327 70 432 56 271 77 346 94 341 10 -2 43 -12 75 -22z m2697 -361
l35 -54 -195 -198 c-107 -109 -224 -234 -260 -277 l-65 -80 -97 71 c-53 38
-97 72 -97 75 1 9 230 215 341 308 123 101 290 223 298 216 3 -3 21 -30 40
-61z m-3419 -193 l36 0 6 -142 c4 -79 14 -199 22 -268 8 -69 15 -130 15 -137
0 -7 -21 -15 -47 -18 -27 -3 -60 -9 -75 -11 l-26 -5 -6 83 c-8 117 -11 212 -8
372 2 138 2 138 25 132 12 -3 38 -6 58 -6z m3821 -345 c-126 -103 -281 -236
-372 -319 l-104 -96 -53 52 c-29 29 -53 55 -53 59 0 9 307 237 458 340 l116
80 23 -43 22 -43 -37 -30z m139 -526 c7 -13 -7 -27 -64 -64 -66 -44 -248 -175
-323 -231 l-31 -24 -27 51 c-16 28 -26 51 -24 53 180 117 451 262 457 243 2
-7 7 -19 12 -28z m-3133 -394 c32 -27 129 -165 179 -255 52 -93 129 -270 163
-374 82 -253 144 -584 138 -745 l-3 -84 -160 -72 -160 -73 -7 172 c-7 195 -26
328 -68 502 -90 366 -242 683 -417 871 l-48 51 95 11 c234 27 252 27 288 -4z
m945 -77 c47 -53 172 -321 227 -484 55 -165 95 -338 104 -460 4 -43 9 -93 12
-111 4 -30 3 -32 -48 -47 -29 -8 -107 -35 -173 -60 l-120 -44 -7 36 c-4 20 -7
58 -7 83 -1 85 -42 292 -92 467 -58 202 -131 387 -220 562 -35 69 -65 127 -67
130 -1 3 80 -5 180 -17 183 -23 183 -23 211 -55z m-1738 -107 c130 -99 254
-248 356 -424 163 -281 285 -644 319 -943 17 -144 15 -150 -47 -179 l-53 -24
0 41 c0 132 -56 362 -125 513 -93 204 -278 402 -495 530 -8 5 18 -28 57 -74
223 -258 346 -633 314 -959 -32 -333 -172 -585 -434 -783 -320 -242 -805 -277
-1231 -88 -330 146 -726 482 -726 617 0 36 34 45 139 39 115 -7 268 -50 388
-109 100 -50 267 -174 346 -257 32 -33 63 -61 68 -61 14 0 11 63 -6 110 -54
153 -300 401 -538 542 -38 23 -124 60 -191 83 -83 28 -122 46 -124 57 -5 26
63 94 171 170 208 148 264 200 462 428 372 430 643 620 1145 800 118 43 110
44 205 -29z m4094 3 c-78 -83 -550 -524 -559 -524 -12 0 -118 82 -119 92 -2
12 335 331 397 376 92 65 162 91 246 92 l70 0 -35 -36z m-1634 -89 c183 -72
243 -102 259 -132 24 -47 93 -275 120 -395 61 -273 87 -546 87 -908 0 -449
-39 -754 -138 -1079 -38 -128 -114 -305 -163 -381 -29 -46 -38 -52 -99 -70
-59 -18 -241 -60 -241 -56 0 1 20 48 45 105 35 81 60 120 116 185 162 185 277
376 338 558 117 352 110 731 -17 972 -34 65 -124 169 -184 212 -25 18 -27 26
-38 144 -30 324 -116 644 -238 894 -6 11 19 3 153 -49z m2064 -131 c-4 -6
-113 -81 -241 -168 -128 -87 -287 -195 -353 -241 -66 -47 -126 -84 -133 -85
-7 0 -34 15 -60 33 -25 17 -51 35 -57 39 -6 5 1 18 20 33 89 77 378 305 501
396 77 57 154 114 170 126 l29 22 66 -72 c42 -45 64 -76 58 -83z m1832 -209
c6 -66 9 -147 7 -180 l-3 -59 -120 -66 c-66 -36 -237 -131 -380 -211 -449
-251 -729 -404 -734 -402 -2 1 -13 28 -22 60 -14 45 -16 60 -6 69 13 12 387
302 667 516 91 70 255 198 365 286 232 184 207 186 226 -13z m-1666 -79 c14
-57 14 -71 3 -81 -11 -11 -453 -237 -590 -301 l-46 -22 -62 43 -61 43 72 44
c224 133 655 364 660 354 4 -6 14 -42 24 -80z m-1243 -166 c62 -42 69 -50 87
-105 141 -422 175 -1015 81 -1434 -24 -111 -83 -279 -123 -356 -47 -88 -134
-169 -277 -255 -68 -41 -128 -77 -133 -79 -4 -2 8 29 28 69 92 183 174 504
212 835 22 187 24 703 5 869 -31 260 -88 530 -128 607 -8 16 -14 30 -14 33 0
3 44 -27 98 -67 53 -39 127 -92 164 -117z m1206 -181 c-45 -80 -155 -161 -270
-198 -35 -12 -42 -10 -108 25 l-71 37 118 43 c65 24 168 63 228 88 61 24 114
44 118 45 5 1 -2 -17 -15 -40z m1691 -273 c-9 -90 -20 -181 -23 -202 l-7 -40
-97 -16 c-53 -9 -299 -60 -547 -113 -247 -52 -461 -98 -475 -101 -25 -4 -26
-2 -36 60 l-9 65 50 22 c27 11 138 56 245 99 206 83 519 216 760 323 80 36
147 66 150 66 3 1 -2 -73 -11 -163z m-2285 34 c154 -93 162 -101 196 -202 47
-141 64 -246 64 -408 1 -161 -15 -257 -66 -397 -32 -90 -33 -91 -98 -118 -25
-10 -92 -50 -149 -88 -65 -43 -101 -62 -96 -51 55 124 99 308 116 479 27 275
-17 664 -96 849 -7 15 -5 17 6 10 8 -5 63 -38 123 -74z m-1679 -124 c66 -30
129 -86 172 -153 18 -29 33 -55 33 -58 0 -3 -21 -5 -47 -5 -130 0 -482 -70
-958 -190 -192 -48 -397 -95 -455 -104 -128 -20 -306 -36 -380 -36 l-55 1 35
13 c37 14 538 227 800 341 498 216 702 261 855 191z m2529 -163 c61 -195 67
-449 14 -648 -31 -120 -26 -115 -100 -98 -35 8 -108 16 -164 17 l-101 1 23 56
c51 124 73 367 48 512 -8 43 -28 110 -44 149 -17 38 -30 71 -30 73 0 2 17 -1
38 -6 53 -12 137 -10 212 5 36 8 68 14 72 15 4 0 18 -34 32 -76z m1396 -413
c6 -85 15 -174 20 -197 6 -38 5 -43 -11 -43 -10 0 -116 18 -236 40 -212 38
-635 106 -820 131 -103 14 -97 8 -87 96 l7 52 61 5 c33 4 151 11 261 16 110 5
236 12 280 15 44 3 174 12 289 20 114 8 211 16 214 19 3 4 6 5 8 4 1 -2 7 -73
14 -158z m-3670 -165 c-7 -55 -13 -102 -15 -105 -2 -3 -97 -2 -212 2 -114 4
-480 12 -813 18 -397 6 -646 15 -725 24 -66 8 -147 18 -180 22 l-60 7 55 13
c48 11 179 32 385 63 33 5 251 43 485 85 642 113 889 151 1030 158 l55 3 3
-95 c2 -52 -2 -140 -8 -195z m2662 -50 c274 -73 941 -270 1031 -304 26 -10 27
-13 29 -88 2 -106 2 -179 0 -236 l-2 -47 -372 186 c-205 103 -481 238 -613
301 -132 63 -241 115 -241 116 -5 6 21 107 27 107 4 0 67 -16 141 -35z m-4531
-170 c90 -8 220 -22 289 -30 69 -8 373 -39 675 -70 303 -30 601 -60 663 -66
61 -6 112 -15 112 -18 0 -11 -116 -179 -152 -220 -17 -20 -55 -62 -85 -94
l-55 -57 -275 80 c-576 169 -1046 336 -1280 454 -40 20 -73 39 -73 42 0 3 4 3
9 0 4 -3 82 -12 172 -21z m4391 -56 c34 -17 156 -92 271 -166 115 -73 367
-229 561 -345 l352 -210 -14 -107 c-8 -58 -16 -108 -17 -110 -2 -2 -25 15 -52
36 -26 22 -190 152 -363 288 -173 136 -373 296 -445 355 -134 110 -303 235
-342 253 -13 6 -23 16 -23 24 0 18 2 17 72 -18z m-4300 -252 c211 -90 533
-226 717 -302 l334 -139 -69 -23 c-170 -58 -360 -66 -514 -23 -191 54 -550
302 -746 516 -87 94 -120 134 -110 134 3 0 178 -74 388 -163z m3600 -147 c107
-47 132 -67 153 -124 16 -43 35 -136 28 -136 -2 0 -14 7 -27 15 -13 9 -163 82
-335 164 l-311 149 67 39 66 40 133 -53 c74 -29 175 -71 226 -94z m-582 -74
c86 -58 478 -289 603 -356 120 -64 137 -76 131 -94 -13 -48 -96 -209 -102
-200 -4 6 -36 30 -72 54 -36 24 -180 125 -320 225 -140 100 -292 206 -337 236
l-81 55 32 22 c18 12 45 36 61 52 35 36 41 37 85 6z m-229 -269 c153 -133 607
-491 723 -569 11 -7 -41 -60 -131 -135 l-43 -35 -47 38 c-102 83 -246 215
-423 389 -102 100 -214 209 -249 242 l-64 60 56 32 c31 18 59 36 62 42 12 19
35 7 116 -64z m296 -878 c-6 -3 -59 -19 -115 -33 l-104 -27 -66 63 c-37 35
-75 70 -84 78 -10 8 -104 107 -210 220 -106 113 -233 247 -282 297 -49 51 -88
94 -85 96 2 2 36 15 74 30 39 15 76 31 84 36 10 7 115 -89 407 -372 249 -241
389 -384 381 -388z m-3663 510 c-4 -7 -3 -9 4 -5 10 6 186 -190 460 -516 214
-254 447 -499 660 -695 84 -78 92 -89 92 -123 0 -43 46 -233 66 -272 19 -36
18 -38 -13 -28 -174 51 -344 179 -545 409 -260 297 -437 567 -610 930 -61 128
-158 353 -158 366 0 3 12 -7 26 -24 14 -17 22 -36 18 -42z m2565 -14 c65 -83
288 -321 424 -452 58 -57 105 -103 103 -103 -18 0 -146 50 -197 77 -116 60
-264 214 -417 432 l-53 76 38 17 c21 10 41 18 45 18 3 0 29 -29 57 -65z
m-2202 2 c449 -272 549 -338 660 -442 142 -132 200 -241 212 -402 3 -51 4 -93
0 -93 -31 0 -812 781 -908 908 -34 45 -60 82 -57 82 3 0 45 -24 93 -53z m-852
-217 c23 -132 58 -278 94 -391 l31 -96 -26 -69 c-15 -38 -34 -98 -44 -134
l-17 -65 -21 42 c-89 172 -133 429 -113 659 9 103 37 245 58 294 4 8 10 -21
14 -65 4 -44 15 -123 24 -175z m352 60 c174 -414 480 -982 650 -1202 24 -32
42 -58 40 -58 -12 0 -141 91 -207 147 -283 237 -488 671 -545 1153 -16 130
-17 155 -8 130 3 -8 35 -85 70 -170z"/>
<path d="M2130 5774 c-240 -87 -307 -433 -118 -610 71 -66 126 -88 220 -88 66
0 86 5 142 33 146 71 220 232 186 403 -22 115 -81 197 -175 246 -64 33 -186
41 -255 16z m263 -205 c34 -36 35 -72 2 -104 -34 -35 -78 -33 -116 4 -33 33
-37 65 -13 99 34 49 82 49 127 1z"/>
</g>
</svg>
